<svg width="87" height="99" viewBox="0 0 87 99" fill="none" xmlns="http://www.w3.org/2000/svg">
<mask id="path-1-outside-1_292_81" maskUnits="userSpaceOnUse" x="0" y="0" width="87" height="99" fill="black">
<rect fill="white" width="87" height="99"/>
<path d="M15.3267 97H3.32386L38.0398 2.45454H49.858L84.5739 97H72.571L44.3182 17.4119H43.5795L15.3267 97ZM19.7585 60.0682H68.1392V70.2244H19.7585V60.0682Z"/>
</mask>
<path d="M15.3267 97V98.6903H16.5203L16.9196 97.5655L15.3267 97ZM3.32386 97L1.73718 96.4174L0.902609 98.6903H3.32386V97ZM38.0398 2.45454V0.764277H36.8598L36.4531 1.87193L38.0398 2.45454ZM49.858 2.45454L51.4446 1.87193L51.0379 0.764277H49.858V2.45454ZM84.5739 97V98.6903H86.9951L86.1605 96.4174L84.5739 97ZM72.571 97L70.9781 97.5655L71.3774 98.6903H72.571V97ZM44.3182 17.4119L45.9111 16.8465L45.5118 15.7217H44.3182V17.4119ZM43.5795 17.4119V15.7217H42.386L41.9867 16.8465L43.5795 17.4119ZM19.7585 60.0682V58.3779H18.0683V60.0682H19.7585ZM68.1392 60.0682H69.8295V58.3779H68.1392V60.0682ZM68.1392 70.2244V71.9147H69.8295V70.2244H68.1392ZM19.7585 70.2244H18.0683V71.9147H19.7585V70.2244ZM15.3267 97V95.3097H3.32386V97V98.6903H15.3267V97ZM3.32386 97L4.91055 97.5826L39.6265 3.03715L38.0398 2.45454L36.4531 1.87193L1.73718 96.4174L3.32386 97ZM38.0398 2.45454V4.14481H49.858V2.45454V0.764277H38.0398V2.45454ZM49.858 2.45454L48.2713 3.03715L82.9872 97.5826L84.5739 97L86.1605 96.4174L51.4446 1.87193L49.858 2.45454ZM84.5739 97V95.3097H72.571V97V98.6903H84.5739V97ZM72.571 97L74.1639 96.4345L45.9111 16.8465L44.3182 17.4119L42.7253 17.9774L70.9781 97.5655L72.571 97ZM44.3182 17.4119V15.7217H43.5795V17.4119V19.1022H44.3182V17.4119ZM43.5795 17.4119L41.9867 16.8465L13.7338 96.4345L15.3267 97L16.9196 97.5655L45.1724 17.9774L43.5795 17.4119ZM19.7585 60.0682V61.7584H68.1392V60.0682V58.3779H19.7585V60.0682ZM68.1392 60.0682H66.4489V70.2244H68.1392H69.8295V60.0682H68.1392ZM68.1392 70.2244V68.5342H19.7585V70.2244V71.9147H68.1392V70.2244ZM19.7585 70.2244H21.4488V60.0682H19.7585H18.0683V70.2244H19.7585Z" fill="url(#paint0_linear_292_81)" mask="url(#path-1-outside-1_292_81)"/>
<defs>
<linearGradient id="paint0_linear_292_81" x1="44" y1="-29" x2="44" y2="128" gradientUnits="userSpaceOnUse">
<stop stop-color="#FEFEFE"/>
<stop offset="1"/>
</linearGradient>
</defs>
</svg>
