<svg width="78" height="97" viewBox="0 0 78 97" fill="none" xmlns="http://www.w3.org/2000/svg">
<mask id="path-1-outside-1_292_64" maskUnits="userSpaceOnUse" x="0" y="0" width="78" height="97" fill="black">
<rect fill="white" width="78" height="97"/>
<path d="M76.4205 1.45454V96H65.3409L13.821 21.767H12.8977V96H1.44886V1.45454H12.5284L64.233 75.8722H65.1562V1.45454H76.4205Z"/>
</mask>
<path d="M76.4205 1.45454H77.4205V0.454542H76.4205V1.45454ZM76.4205 96V97H77.4205V96H76.4205ZM65.3409 96L64.5194 96.5702L64.8177 97H65.3409V96ZM13.821 21.767L14.6426 21.1969L14.3442 20.767H13.821V21.767ZM12.8977 21.767V20.767H11.8977V21.767H12.8977ZM12.8977 96V97H13.8977V96H12.8977ZM1.44886 96H0.448864V97H1.44886V96ZM1.44886 1.45454V0.454542H0.448864V1.45454H1.44886ZM12.5284 1.45454L13.3496 0.883955L13.0513 0.454542H12.5284V1.45454ZM64.233 75.8722L63.4117 76.4427L63.7101 76.8722H64.233V75.8722ZM65.1562 75.8722V76.8722H66.1562V75.8722H65.1562ZM65.1562 1.45454V0.454542H64.1562V1.45454H65.1562ZM76.4205 1.45454H75.4205V96H76.4205H77.4205V1.45454H76.4205ZM76.4205 96V95H65.3409V96V97H76.4205V96ZM65.3409 96L66.1624 95.4298L14.6426 21.1969L13.821 21.767L12.9995 22.3372L64.5194 96.5702L65.3409 96ZM13.821 21.767V20.767H12.8977V21.767V22.767H13.821V21.767ZM12.8977 21.767H11.8977V96H12.8977H13.8977V21.767H12.8977ZM12.8977 96V95H1.44886V96V97H12.8977V96ZM1.44886 96H2.44886V1.45454H1.44886H0.448864V96H1.44886ZM1.44886 1.45454V2.45454H12.5284V1.45454V0.454542H1.44886V1.45454ZM12.5284 1.45454L11.7072 2.02513L63.4117 76.4427L64.233 75.8722L65.0542 75.3016L13.3496 0.883955L12.5284 1.45454ZM64.233 75.8722V76.8722H65.1562V75.8722V74.8722H64.233V75.8722ZM65.1562 75.8722H66.1562V1.45454H65.1562H64.1562V75.8722H65.1562ZM65.1562 1.45454V2.45454H76.4205V1.45454V0.454542H65.1562V1.45454Z" fill="url(#paint0_linear_292_64)" mask="url(#path-1-outside-1_292_64)"/>
<defs>
<linearGradient id="paint0_linear_292_64" x1="39" y1="127" x2="39" y2="-30" gradientUnits="userSpaceOnUse">
<stop/>
<stop offset="1" stop-color="white"/>
</linearGradient>
</defs>
</svg>
