<svg width="85" height="97" viewBox="0 0 85 97" fill="none" xmlns="http://www.w3.org/2000/svg">
<mask id="path-1-outside-1_292_67" maskUnits="userSpaceOnUse" x="0" y="0" width="86" height="97" fill="black">
<rect fill="white" width="86" height="97"/>
<path d="M14.3267 1.45454L42.3949 81.0426H43.5028L71.571 1.45454H83.5739L48.858 96H37.0398L2.32386 1.45454H14.3267Z"/>
</mask>
<path d="M14.3267 1.45454L15.2698 1.12195L15.0344 0.454542H14.3267V1.45454ZM42.3949 81.0426L41.4518 81.3752L41.6872 82.0426H42.3949V81.0426ZM43.5028 81.0426V82.0426H44.2105L44.4459 81.3752L43.5028 81.0426ZM71.571 1.45454V0.454542H70.8633L70.628 1.12195L71.571 1.45454ZM83.5739 1.45454L84.5126 1.79923L85.0063 0.454542H83.5739V1.45454ZM48.858 96V97H49.5561L49.7967 96.3447L48.858 96ZM37.0398 96L36.1011 96.3447L36.3417 97H37.0398V96ZM2.32386 1.45454V0.454542H0.891394L1.38515 1.79923L2.32386 1.45454ZM14.3267 1.45454L13.3836 1.78713L41.4518 81.3752L42.3949 81.0426L43.338 80.71L15.2698 1.12195L14.3267 1.45454ZM42.3949 81.0426V82.0426H43.5028V81.0426V80.0426H42.3949V81.0426ZM43.5028 81.0426L44.4459 81.3752L72.5141 1.78713L71.571 1.45454L70.628 1.12195L42.5598 80.71L43.5028 81.0426ZM71.571 1.45454V2.45454H83.5739V1.45454V0.454542H71.571V1.45454ZM83.5739 1.45454L82.6351 1.10986L47.9192 95.6553L48.858 96L49.7967 96.3447L84.5126 1.79923L83.5739 1.45454ZM48.858 96V95H37.0398V96V97H48.858V96ZM37.0398 96L37.9785 95.6553L3.26258 1.10986L2.32386 1.45454L1.38515 1.79923L36.1011 96.3447L37.0398 96ZM2.32386 1.45454V2.45454H14.3267V1.45454V0.454542H2.32386V1.45454Z" fill="url(#paint0_linear_292_67)" mask="url(#path-1-outside-1_292_67)"/>
<defs>
<linearGradient id="paint0_linear_292_67" x1="43" y1="127" x2="43" y2="-30" gradientUnits="userSpaceOnUse">
<stop/>
<stop offset="1" stop-color="white"/>
</linearGradient>
</defs>
</svg>
